# xmcd CD database file
#
# Track frame offsets:
#	150
#	23592
#	42665
#	62625
#	88092
#	108697
#	129990
#	150509
#	170827
#	187302
#
# Disc length: 2822 seconds
#
# Revision: 0
# Processed by: cddbd v1.5.1PL0 Copyright (c) Steve Scherf et al.
# Submitted via: CDex 1.51
#
DISCID=8a0b040a
DTITLE=Darren Motamedy - It's All Good
DYEAR=1999
DGENRE=Smooth Jazz
TTITLE0=It's All Good
TTITLE1=Kickin' It
TTITLE2=The Jazz Mecca
TTITLE3=Soft Serve
TTITLE4=Be Mine
TTITLE5=The Buzz Cut
TTITLE6=What's Goin' On?
TTITLE7=All The Love
TTITLE8=The Local Groove
TTITLE9=Sketches In Blue
EXTD=YEAR: 1999
EXTT0=
EXTT1=
EXTT2=
EXTT3=
EXTT4=
EXTT5=
EXTT6=
EXTT7=
EXTT8=
EXTT9=
PLAYORDER=
